# xmcd CD database file
#
# Track frame offsets:
#	150
#	14713
#	26968
#	40698
#	54140
#	67228
#	81983
#	100808
#	114260
#	126360
#	137720
#	150458
#	164555
#	182403
#	195440
#	210033
#	228983
#	248488
#	260003
#	274930
#	285750
#	301430
#
# Disc length: 4305 seconds
#
# Revision: 2
# Processed by: cddbd v1.5.2PL0 Copyright (c) Steve Scherf et al.
# Submitted via: CDex 1.51
#
DISCID=2910cf16
DTITLE=Sidney Bechet - Vol. 1006 - Revolutionary Blues 1941-1951 - CD 3
DYEAR=1956
DGENRE=Jazz
TTITLE0=At A Georgia Camp Meeting
TTITLE1=Shim-Me-Sha Wabble
TTITLE2=Sister Kate
TTITLE3=Fidgety Feet
TTITLE4=Groovin' The Minor
TTITLE5=I Had It Byt It's All Gone Now
TTITLE6=Old Stack O'lee Blues
TTITLE7=Darktown Strutter's Ball
TTITLE8=Revolutionary Blues
TTITLE9=Out Of The Gallion
TTITLE10=Jelly Roll Blues
TTITLE11=Laura
TTITLE12=Changes Made
TTITLE13=Blame It On The Blues
TTITLE14=Mood Indigo
TTITLE15=St. Louis Blues
TTITLE16=Blue Horizon
TTITLE17=Rose Room
TTITLE18=Love For Sale
TTITLE19=Oh, Lady Be Good
TTITLE20=What Is This Ting Called Love
TTITLE21=Bugle Call Rag - Ole Miss Blues
EXTD=YEAR: 1956
EXTT0=
EXTT1=
EXTT2=
EXTT3=
EXTT4=
EXTT5=
EXTT6=
EXTT7=
EXTT8=
EXTT9=
EXTT10=
EXTT11=
EXTT12=
EXTT13=
EXTT14=
EXTT15=
EXTT16=
EXTT17=
EXTT18=
EXTT19=
EXTT20=
EXTT21=
PLAYORDER=
